HIERARCHY
ROOT Hips
{
    OFFSET 0.000000 0.000000 0.000000
    CHANNELS 6 Xposition Yposition Zposition Zrotation Xrotation Yrotation
    JOINT Spine
    {
        OFFSET -0.000000 14.517291 0.000000
        CHANNELS 3 Zrotation Xrotation Yrotation
        JOINT Spine1
        {
            OFFSET -0.000000 37.558300 0.000000
            CHANNELS 3 Zrotation Xrotation Yrotation
            JOINT Neck
            {
                OFFSET -0.000000 37.404057 3.400369
                CHANNELS 3 Zrotation Xrotation Yrotation
                JOINT Head
                {
                    OFFSET -0.000000 24.785618 -3.540803
                    CHANNELS 3 Zrotation Xrotation Yrotation
                    End Site
                    {
                        OFFSET -0.000000 35.408028 0.000000
                    }
                }
            }
            JOINT LeftShoulder
            {
                OFFSET 6.992933 33.973492 -0.192664
                CHANNELS 3 Zrotation Xrotation Yrotation
                JOINT LeftArm
                {
                    OFFSET 21.527611 0.000000 0.000000
                    CHANNELS 3 Zrotation Xrotation Yrotation
                    JOINT LeftForeArm
                    {
                        OFFSET 56.353916 0.000000 0.000000
                        CHANNELS 3 Zrotation Xrotation Yrotation
                        JOINT LeftHand
                        {
                            OFFSET 47.774071 0.000000 0.000000
                            CHANNELS 3 Zrotation Xrotation Yrotation
                            End Site
                            {
                                OFFSET 26.556021 0.000000 0.000000
                            }
                        }
                    }
                }
            }
            JOINT RightShoulder
            {
                OFFSET -7.065357 33.973492 -0.192664
                CHANNELS 3 Zrotation Xrotation Yrotation
                JOINT RightArm
                {
                    OFFSET -21.527611 0.000000 0.000000
                    CHANNELS 3 Zrotation Xrotation Yrotation
                    JOINT RightForeArm
                    {
                        OFFSET -56.353916 0.000000 0.000000
                        CHANNELS 3 Zrotation Xrotation Yrotation
                        JOINT RightHand
                        {
                            OFFSET -47.774071 0.000000 0.000000
                            CHANNELS 3 Zrotation Xrotation Yrotation
                            End Site
                            {
                                OFFSET -26.556021 0.000000 0.000000
                            }
                        }
                    }
                }
            }
        }
    }
    JOINT LeftUpLeg
    {
        OFFSET 17.704014 0.000000 0.000000
        CHANNELS 3 Zrotation Xrotation Yrotation
        JOINT LeftLeg
        {
            OFFSET -0.000000 -81.181816 0.000000
            CHANNELS 3 Zrotation Xrotation Yrotation
            JOINT LeftFoot
            {
                OFFSET -0.000000 -62.821102 0.000000
                CHANNELS 3 Zrotation Xrotation Yrotation
                JOINT LeftToeBase
                {
                    OFFSET -0.000000 -11.507608 26.556021
                    CHANNELS 3 Zrotation Xrotation Yrotation
                    End Site
                    {
                        OFFSET -0.000000 0.000000 7.081605
                    }
                }
            }
        }
    }
    JOINT RightUpLeg
    {
        OFFSET -17.704014 0.000000 0.000000
        CHANNELS 3 Zrotation Xrotation Yrotation
        JOINT RightLeg
        {
            OFFSET -0.000000 -81.181816 0.000000
            CHANNELS 3 Zrotation Xrotation Yrotation
            JOINT RightFoot
            {
                OFFSET -0.000000 -62.821102 0.000000
                CHANNELS 3 Zrotation Xrotation Yrotation
                JOINT RightToeBase
                {
                    OFFSET -0.000000 -11.507608 26.556021
                    CHANNELS 3 Zrotation Xrotation Yrotation
                    End Site
                    {
                        OFFSET -0.000000 0.000000 7.081605
                    }
                }
            }
        }
    }
}
MOTION
Frames:    8
Frame Time:    0.008333
16.676270    155.156952    -64.573265    4.312427    -5.235402    -45.079941    0.247653    1.582749    -4.167680    -3.677666    1.125186    -1.353232    14.423945    -3.148033    12.852797    -9.296868    7.720556    10.132592    12.372900    -0.369363    -21.238224    -9.940588    -18.444748    -41.747318    10.204964    -38.930096    -20.801161    -26.922075    -27.262335    -47.432034    -8.729342    2.323941    -3.134063    34.800156    6.101727    75.960220    7.805766    -1.435585    106.887383    2.342150    -11.526226    19.466887    22.583712    -18.532967    3.601922    -13.716897    24.856785    -2.731106    -17.577269    0.839833    36.607498    0.000000    0.000000    0.000000    -10.428555    -17.985758    1.945385    9.927288    47.617325    -5.647067    -4.936547    -24.334145    -20.913952    0.000000    0.000000    0.000000    
16.352898    155.280045    -64.762375    4.247958    -5.198826    -45.283230    0.265129    1.596534    -4.090317    -3.672864    1.163418    -1.326140    14.488949    -3.189445    12.889007    -9.301606    7.800437    10.159590    12.411428    -0.418842    -21.177889    -9.937584    -18.362185    -41.826561    10.264920    -38.966278    -20.770554    -26.996668    -27.250830    -47.487595    -8.720535    2.295747    -3.132972    34.792503    6.146348    76.047478    7.799641    -1.465673    106.801933    2.371742    -11.526154    19.471125    22.359102    -18.766506    3.484424    -13.818398    24.788214    -2.605746    -17.517838    0.554356    36.416004    0.000000    0.000000    0.000000    -10.264817    -17.856647    1.939052    9.940728    47.337284    -5.531449    -4.910245    -24.207397    -20.735224    0.000000    0.000000    0.000000    
16.051107    155.405762    -64.968971    4.207935    -5.106174    -45.484360    0.280413    1.581255    -4.023221    -3.630464    1.158380    -1.304336    14.489101    -3.191738    12.904294    -9.249498    7.870202    10.184773    12.426696    -0.409985    -21.171844    -9.903758    -18.382557    -41.830486    10.247447    -38.954971    -20.778086    -27.085354    -27.184473    -47.559277    -8.718152    2.300019    -3.070824    34.768822    6.166945    76.108498    7.776023    -1.513537    106.747421    2.345745    -11.535850    19.457319    22.197998    -19.056110    3.356628    -13.904483    24.672350    -2.541839    -17.484678    0.352539    36.271416    0.000000    0.000000    0.000000    -10.096381    -17.792608    1.784620    9.863006    47.065914    -5.323785    -4.995206    -24.055603    -20.553007    0.000000    0.000000    0.000000    
15.752384    155.518646    -65.124130    4.155255    -5.089890    -45.720436    0.254608    1.600365    -3.934411    -3.611455    1.209234    -1.273487    14.541300    -3.248371    12.949028    -9.237773    7.964621    10.223304    12.471426    -0.492721    -21.123730    -9.955194    -18.401085    -41.871876    10.200665    -38.857845    -20.796278    -27.175539    -27.018360    -47.649185    -8.712316    2.265519    -3.048048    34.770214    6.184052    76.168846    7.782379    -1.518071    106.700478    2.388550    -11.532528    19.475243    21.987335    -19.251572    3.243939    -13.934828    24.543974    -2.548051    -17.568434    0.045341    36.238014    0.000000    0.000000    0.000000    -9.998009    -17.647579    1.712263    9.876532    46.775799    -5.259977    -5.089456    -23.960546    -20.279354    0.000000    0.000000    0.000000    
15.463808    155.630280    -65.282478    4.115175    -5.044773    -45.973015    0.232292    1.606944    -3.841457    -3.566269    1.207025    -1.243102    14.572421    -3.210860    12.991738    -9.250609    7.999152    10.269060    12.463589    -0.523181    -21.095419    -9.943444    -18.377024    -41.868023    10.187422    -38.839645    -20.802277    -27.273413    -26.938435    -47.723866    -8.741281    2.267410    -2.988770    34.794575    6.214807    76.239326    7.797566    -1.538005    106.641121    2.455980    -11.548925    19.502174    21.835026    -19.456974    3.127319    -13.969707    24.376570    -2.588588    -17.637705    -0.185461    36.235458    0.000000    0.000000    0.000000    -9.877722    -17.559042    1.544940    9.784235    46.534676    -5.063861    -5.170449    -23.838140    -20.038582    0.000000    0.000000    0.000000    
15.188746    155.737610    -65.424026    4.080317    -5.018180    -46.244576    0.198455    1.608628    -3.727264    -3.543360    1.233439    -1.204666    14.572727    -3.162807    13.006958    -9.222862    7.974576    10.291159    12.467733    -0.549451    -21.078384    -9.944769    -18.460924    -41.877026    10.100706    -38.735382    -20.819691    -27.295988    -26.816830    -47.745590    -8.770626    2.266958    -2.920557    34.790039    6.246902    76.314606    7.790368    -1.608716    106.599487    2.361483    -11.617805    19.461601    21.678514    -19.634695    3.040031    -13.929450    24.176840    -2.668255    -17.749296    -0.308339    36.227398    0.000000    0.000000    0.000000    -9.803072    -17.440102    1.379552    9.744874    46.254658    -4.799657    -5.333848    -23.738899    -19.863140    0.000000    0.000000    0.000000    
14.920171    155.835953    -65.564377    4.058641    -4.961318    -46.519917    0.138342    1.604449    -3.618168    -3.450929    1.237497    -1.169476    14.547009    -3.202371    13.037129    -9.182711    8.062797    10.332238    12.428677    -0.615058    -21.057377    -9.952178    -18.507818    -41.853703    9.985138    -38.679241    -20.866093    -27.374088    -26.721714    -47.795628    -8.817713    2.267338    -2.900078    34.768059    6.292463    76.423164    7.758817    -1.681919    106.563980    2.442403    -11.628372    19.415514    21.570990    -19.853228    2.963526    -13.871362    24.010878    -2.866736    -17.878935    -0.433414    36.287601    0.000000    0.000000    0.000000    -9.681581    -17.401228    1.216184    9.629677    46.064884    -4.630451    -5.389935    -23.610941    -19.568125    0.000000    0.000000    0.000000    
14.664844    155.932724    -65.697189    4.028067    -4.903381    -46.822243    0.105386    1.604859    -3.512656    -3.433895    1.255740    -1.134048    14.664504    -3.181809    13.111975    -9.261020    8.074039    10.387261    12.469709    -0.641439    -20.991768    -9.938910    -18.535357    -41.840816    9.956452    -38.630398    -20.882240    -27.397730    -26.651480    -47.825344    -8.817761    2.272748    -2.858332    34.753998    6.329870    76.537117    7.740680    -1.756613    106.546677    2.447497    -11.673730    19.413965    21.502022    -20.035049    2.888070    -13.779067    23.800617    -3.069519    -17.936333    -0.430162    36.253056    0.000000    0.000000    0.000000    -9.557136    -17.355902    1.068600    9.520467    45.860832    -4.358574    -5.494389    -23.475143    -19.362478    0.000000    0.000000    0.000000    
